<mxfile host="app.diagrams.net" modified="2022-08-22T20:04:18.063Z" agent="5.0 (Windows NT 10.0; Win64; x64) AppleWebKit/537.36 (KHTML, like Gecko) Chrome/104.0.0.0 Safari/537.36" etag="j3QMBgwJSpspyagYFkF6" version="20.2.6" type="github">
  <diagram name="Page-1" id="b5b7bab2-c9e2-2cf4-8b2a-24fd1a2a6d21">
    <mxGraphModel dx="1094" dy="605" grid="1" gridSize="10" guides="1" tooltips="1" connect="1" arrows="1" fold="1" page="1" pageScale="1" pageWidth="827" pageHeight="1169" background="#114B5F" math="0" shadow="1">
      <root>
        <mxCell id="0" />
        <mxCell id="1" parent="0" />
        <mxCell id="tznUTwWEu6ILu5F7X-mW-97" style="edgeStyle=orthogonalEdgeStyle;rounded=0;orthogonalLoop=1;jettySize=auto;html=1;exitX=0;exitY=0;exitDx=70;exitDy=32;exitPerimeter=0;entryX=0;entryY=0;entryDx=0;entryDy=32;entryPerimeter=0;labelBackgroundColor=#114B5F;strokeColor=#028090;fontColor=#E4FDE1;" edge="1" parent="1" target="tznUTwWEu6ILu5F7X-mW-74">
          <mxGeometry relative="1" as="geometry">
            <mxPoint x="195" y="931.9999999999998" as="sourcePoint" />
            <Array as="points">
              <mxPoint x="215" y="932" />
              <mxPoint x="215" y="970" />
              <mxPoint x="20" y="970" />
              <mxPoint x="20" y="1022" />
            </Array>
          </mxGeometry>
        </mxCell>
        <mxCell id="tznUTwWEu6ILu5F7X-mW-99" style="edgeStyle=orthogonalEdgeStyle;rounded=0;orthogonalLoop=1;jettySize=auto;html=1;exitX=0;exitY=0;exitDx=70;exitDy=32;exitPerimeter=0;entryX=0;entryY=0;entryDx=0;entryDy=32;entryPerimeter=0;labelBackgroundColor=#114B5F;strokeColor=#028090;fontColor=#E4FDE1;" edge="1" parent="1" target="tznUTwWEu6ILu5F7X-mW-89">
          <mxGeometry relative="1" as="geometry">
            <mxPoint x="195" y="1021.9999999999998" as="sourcePoint" />
            <Array as="points">
              <mxPoint x="215" y="1022" />
              <mxPoint x="215" y="1060" />
              <mxPoint x="20" y="1060" />
              <mxPoint x="20" y="1112" />
            </Array>
          </mxGeometry>
        </mxCell>
        <mxCell id="tznUTwWEu6ILu5F7X-mW-123" style="edgeStyle=orthogonalEdgeStyle;rounded=0;orthogonalLoop=1;jettySize=auto;html=1;exitX=0.5;exitY=1;exitDx=0;exitDy=0;entryX=0.5;entryY=0;entryDx=0;entryDy=0;labelBackgroundColor=#114B5F;strokeColor=#028090;fontColor=#E4FDE1;" edge="1" parent="1" source="tznUTwWEu6ILu5F7X-mW-104" target="tznUTwWEu6ILu5F7X-mW-108">
          <mxGeometry relative="1" as="geometry" />
        </mxCell>
        <mxCell id="tznUTwWEu6ILu5F7X-mW-104" value="Disco" style="swimlane;fontStyle=0;childLayout=stackLayout;horizontal=1;startSize=26;fillColor=none;horizontalStack=0;resizeParent=1;resizeParentMax=0;resizeLast=0;collapsible=1;marginBottom=0;strokeColor=#028090;fontColor=#E4FDE1;" vertex="1" parent="1">
          <mxGeometry x="240" y="40" width="140" height="78" as="geometry">
            <mxRectangle x="640" y="190" width="70" height="30" as="alternateBounds" />
          </mxGeometry>
        </mxCell>
        <mxCell id="tznUTwWEu6ILu5F7X-mW-105" value="- Prato livres: 4-4" style="text;strokeColor=none;fillColor=none;align=left;verticalAlign=top;spacingLeft=4;spacingRight=4;overflow=hidden;rotatable=0;points=[[0,0.5],[1,0.5]];portConstraint=eastwest;fontColor=#E4FDE1;" vertex="1" parent="tznUTwWEu6ILu5F7X-mW-104">
          <mxGeometry y="26" width="140" height="26" as="geometry" />
        </mxCell>
        <mxCell id="tznUTwWEu6ILu5F7X-mW-128" value="- Pratos ocupados: 0" style="text;strokeColor=none;fillColor=none;align=left;verticalAlign=top;spacingLeft=4;spacingRight=4;overflow=hidden;rotatable=0;points=[[0,0.5],[1,0.5]];portConstraint=eastwest;fontColor=#E4FDE1;" vertex="1" parent="tznUTwWEu6ILu5F7X-mW-104">
          <mxGeometry y="52" width="140" height="26" as="geometry" />
        </mxCell>
        <mxCell id="tznUTwWEu6ILu5F7X-mW-124" style="edgeStyle=orthogonalEdgeStyle;rounded=0;orthogonalLoop=1;jettySize=auto;html=1;exitX=0.5;exitY=1;exitDx=0;exitDy=0;entryX=0.5;entryY=0;entryDx=0;entryDy=0;labelBackgroundColor=#114B5F;strokeColor=#028090;fontColor=#E4FDE1;" edge="1" parent="1" source="tznUTwWEu6ILu5F7X-mW-108" target="tznUTwWEu6ILu5F7X-mW-114">
          <mxGeometry relative="1" as="geometry" />
        </mxCell>
        <mxCell id="tznUTwWEu6ILu5F7X-mW-108" value="Prato" style="swimlane;fontStyle=0;childLayout=stackLayout;horizontal=1;startSize=26;fillColor=none;horizontalStack=0;resizeParent=1;resizeParentMax=0;resizeLast=0;collapsible=1;marginBottom=0;strokeColor=#028090;fontColor=#E4FDE1;" vertex="1" parent="1">
          <mxGeometry x="240" y="144" width="140" height="78" as="geometry">
            <mxRectangle x="640" y="260" width="70" height="30" as="alternateBounds" />
          </mxGeometry>
        </mxCell>
        <mxCell id="tznUTwWEu6ILu5F7X-mW-109" value="- Trilha livres: 305-305" style="text;strokeColor=none;fillColor=none;align=left;verticalAlign=top;spacingLeft=4;spacingRight=4;overflow=hidden;rotatable=0;points=[[0,0.5],[1,0.5]];portConstraint=eastwest;fontColor=#E4FDE1;" vertex="1" parent="tznUTwWEu6ILu5F7X-mW-108">
          <mxGeometry y="26" width="140" height="26" as="geometry" />
        </mxCell>
        <mxCell id="tznUTwWEu6ILu5F7X-mW-127" value="- Trilhas ocupadas: 0" style="text;strokeColor=none;fillColor=none;align=left;verticalAlign=top;spacingLeft=4;spacingRight=4;overflow=hidden;rotatable=0;points=[[0,0.5],[1,0.5]];portConstraint=eastwest;fontColor=#E4FDE1;" vertex="1" parent="tznUTwWEu6ILu5F7X-mW-108">
          <mxGeometry y="52" width="140" height="26" as="geometry" />
        </mxCell>
        <mxCell id="tznUTwWEu6ILu5F7X-mW-145" style="edgeStyle=orthogonalEdgeStyle;rounded=0;orthogonalLoop=1;jettySize=auto;html=1;exitX=0.5;exitY=1;exitDx=0;exitDy=0;entryX=0.5;entryY=0;entryDx=0;entryDy=0;labelBackgroundColor=#114B5F;strokeColor=#028090;fontColor=#E4FDE1;" edge="1" parent="1" source="tznUTwWEu6ILu5F7X-mW-114" target="tznUTwWEu6ILu5F7X-mW-141">
          <mxGeometry relative="1" as="geometry" />
        </mxCell>
        <mxCell id="tznUTwWEu6ILu5F7X-mW-114" value="Trilha" style="swimlane;fontStyle=0;childLayout=stackLayout;horizontal=1;startSize=26;fillColor=none;horizontalStack=0;resizeParent=1;resizeParentMax=0;resizeLast=0;collapsible=1;marginBottom=0;strokeColor=#028090;fontColor=#E4FDE1;" vertex="1" parent="1">
          <mxGeometry x="240" y="254" width="140" height="78" as="geometry">
            <mxRectangle x="240" y="254" width="70" height="30" as="alternateBounds" />
          </mxGeometry>
        </mxCell>
        <mxCell id="tznUTwWEu6ILu5F7X-mW-115" value="- Setores livres: 17-17" style="text;strokeColor=none;fillColor=none;align=left;verticalAlign=top;spacingLeft=4;spacingRight=4;overflow=hidden;rotatable=0;points=[[0,0.5],[1,0.5]];portConstraint=eastwest;fontColor=#E4FDE1;" vertex="1" parent="tznUTwWEu6ILu5F7X-mW-114">
          <mxGeometry y="26" width="140" height="26" as="geometry" />
        </mxCell>
        <mxCell id="tznUTwWEu6ILu5F7X-mW-126" value="- Setores ocupados: 0" style="text;strokeColor=none;fillColor=none;align=left;verticalAlign=top;spacingLeft=4;spacingRight=4;overflow=hidden;rotatable=0;points=[[0,0.5],[1,0.5]];portConstraint=eastwest;fontColor=#E4FDE1;" vertex="1" parent="tznUTwWEu6ILu5F7X-mW-114">
          <mxGeometry y="52" width="140" height="26" as="geometry" />
        </mxCell>
        <mxCell id="tznUTwWEu6ILu5F7X-mW-140" style="edgeStyle=orthogonalEdgeStyle;rounded=0;orthogonalLoop=1;jettySize=auto;html=1;exitX=0.5;exitY=0;exitDx=0;exitDy=0;entryX=0.5;entryY=0;entryDx=0;entryDy=0;labelBackgroundColor=#114B5F;strokeColor=#028090;fontColor=#E4FDE1;" edge="1" parent="1" source="tznUTwWEu6ILu5F7X-mW-136" target="tznUTwWEu6ILu5F7X-mW-104">
          <mxGeometry relative="1" as="geometry" />
        </mxCell>
        <mxCell id="tznUTwWEu6ILu5F7X-mW-136" value="Siguigate Balacuda 10M" style="swimlane;fontStyle=1;align=center;verticalAlign=top;childLayout=stackLayout;horizontal=1;startSize=26;horizontalStack=0;resizeParent=1;resizeParentMax=0;resizeLast=0;collapsible=1;marginBottom=0;fillColor=#F45B69;strokeColor=#028090;fontColor=#E4FDE1;" vertex="1" parent="1">
          <mxGeometry x="20" y="140" width="178" height="164" as="geometry" />
        </mxCell>
        <mxCell id="tznUTwWEu6ILu5F7X-mW-101" value="+ Polegadas: 3,5&#39;" style="text;strokeColor=none;fillColor=none;align=left;verticalAlign=top;spacingLeft=4;spacingRight=4;overflow=hidden;rotatable=0;points=[[0,0.5],[1,0.5]];portConstraint=eastwest;fontColor=#E4FDE1;" vertex="1" parent="tznUTwWEu6ILu5F7X-mW-136">
          <mxGeometry y="26" width="178" height="26" as="geometry" />
        </mxCell>
        <mxCell id="tznUTwWEu6ILu5F7X-mW-102" value="+ Capacidade: 10 Mb" style="text;strokeColor=none;fillColor=none;align=left;verticalAlign=top;spacingLeft=4;spacingRight=4;overflow=hidden;rotatable=0;points=[[0,0.5],[1,0.5]];portConstraint=eastwest;fontColor=#E4FDE1;" vertex="1" parent="tznUTwWEu6ILu5F7X-mW-136">
          <mxGeometry y="52" width="178" height="26" as="geometry" />
        </mxCell>
        <mxCell id="tznUTwWEu6ILu5F7X-mW-103" value="+ RPM: 5000" style="text;strokeColor=none;fillColor=none;align=left;verticalAlign=top;spacingLeft=4;spacingRight=4;overflow=hidden;rotatable=0;points=[[0,0.5],[1,0.5]];portConstraint=eastwest;fontColor=#E4FDE1;" vertex="1" parent="tznUTwWEu6ILu5F7X-mW-136">
          <mxGeometry y="78" width="178" height="26" as="geometry" />
        </mxCell>
        <mxCell id="tznUTwWEu6ILu5F7X-mW-113" value="- Disco: 1" style="text;strokeColor=none;fillColor=none;align=left;verticalAlign=top;spacingLeft=4;spacingRight=4;overflow=hidden;rotatable=0;points=[[0,0.5],[1,0.5]];portConstraint=eastwest;fontColor=#E4FDE1;" vertex="1" parent="tznUTwWEu6ILu5F7X-mW-136">
          <mxGeometry y="104" width="178" height="26" as="geometry" />
        </mxCell>
        <mxCell id="tznUTwWEu6ILu5F7X-mW-138" value="" style="line;strokeWidth=1;fillColor=none;align=left;verticalAlign=middle;spacingTop=-1;spacingLeft=3;spacingRight=3;rotatable=0;labelPosition=right;points=[];portConstraint=eastwest;labelBackgroundColor=#114B5F;strokeColor=#028090;fontColor=#E4FDE1;" vertex="1" parent="tznUTwWEu6ILu5F7X-mW-136">
          <mxGeometry y="130" width="178" height="8" as="geometry" />
        </mxCell>
        <mxCell id="tznUTwWEu6ILu5F7X-mW-121" value="+ Leitura/Escrita(Dados):bytes" style="text;strokeColor=none;fillColor=none;align=left;verticalAlign=top;spacingLeft=4;spacingRight=4;overflow=hidden;rotatable=0;points=[[0,0.5],[1,0.5]];portConstraint=eastwest;fontColor=#E4FDE1;" vertex="1" parent="tznUTwWEu6ILu5F7X-mW-136">
          <mxGeometry y="138" width="178" height="26" as="geometry" />
        </mxCell>
        <mxCell id="tznUTwWEu6ILu5F7X-mW-141" value="Setor" style="swimlane;fontStyle=0;childLayout=stackLayout;horizontal=1;startSize=26;fillColor=none;horizontalStack=0;resizeParent=1;resizeParentMax=0;resizeLast=0;collapsible=1;marginBottom=0;strokeColor=#028090;fontColor=#E4FDE1;" vertex="1" parent="1">
          <mxGeometry x="240" y="350" width="140" height="52" as="geometry" />
        </mxCell>
        <mxCell id="tznUTwWEu6ILu5F7X-mW-119" value="Capacidade: 512 bytes" style="text;strokeColor=none;fillColor=none;align=left;verticalAlign=top;spacingLeft=4;spacingRight=4;overflow=hidden;rotatable=0;points=[[0,0.5],[1,0.5]];portConstraint=eastwest;fontColor=#E4FDE1;" vertex="1" parent="tznUTwWEu6ILu5F7X-mW-141">
          <mxGeometry y="26" width="140" height="26" as="geometry" />
        </mxCell>
      </root>
    </mxGraphModel>
  </diagram>
</mxfile>
